<svg xmlns="http://www.w3.org/2000/svg" width="16px" height="16px" viewBox="0 0 16 16" version="1.1">
    <g id="surface1">
        <path style=" stroke:none;fill-rule:nonzero;fill:rgb(0%,0%,0%);fill-opacity:1;"
              d="M 0 12.148438 L 2.277344 12.023438 L 2.277344 13.089844 L 0 12.949219 Z M 14.375 2.941406 L 12.097656 2.820312 L 12.097656 3.886719 L 14.375 3.742188 Z M 11.847656 2.386719 L 10.617188 2.386719 L 10.617188 4.320312 L 11.847656 4.320312 Z M 0 9.878906 L 2.277344 10.023438 L 2.277344 8.957031 L 0 9.078125 Z M 14.375 6.011719 L 12.097656 5.890625 L 12.097656 6.953125 L 14.375 6.8125 Z M 2.550781 13.527344 L 3.921875 13.527344 L 3.921875 11.589844 L 2.550781 11.589844 Z M 2.550781 4.320312 L 3.921875 4.320312 L 3.921875 2.386719 L 2.550781 2.386719 Z M 2.550781 7.390625 L 3.921875 7.390625 L 3.921875 5.453125 L 2.550781 5.453125 Z M 0 3.742188 L 2.277344 3.886719 L 2.277344 2.820312 L 0 2.941406 Z M 0 6.8125 L 2.277344 6.953125 L 2.277344 5.890625 L 0 6.011719 Z M 2.550781 10.457031 L 3.921875 10.457031 L 3.921875 8.523438 L 2.550781 8.523438 Z M 14.484375 8.707031 C 13.875 7.90625 13.035156 7.785156 12.558594 7.785156 C 10.84375 7.785156 9.394531 9.078125 9.394531 11.195312 C 9.394531 12.976562 10.539062 14.644531 12.539062 14.644531 C 13.007812 14.644531 13.816406 14.539062 14.484375 13.769531 L 14.484375 14.445312 L 16 14.445312 L 16 7.953125 L 14.484375 7.953125 Z M 12.75 9.15625 C 13.710938 9.15625 14.589844 9.832031 14.589844 11.253906 C 14.589844 12.605469 13.703125 13.300781 12.75 13.300781 C 11.652344 13.300781 10.949219 12.347656 10.949219 11.234375 C 10.949219 10.082031 11.652344 9.144531 12.75 9.15625 Z M 11.847656 7 L 11.847656 5.453125 L 10.617188 5.453125 L 10.617188 7.425781 C 11.003906 7.226562 11.417969 7.082031 11.847656 7 Z M 10.34375 7.597656 L 10.34375 1.964844 C 10.34375 1.628906 10.070312 1.355469 9.730469 1.355469 L 4.769531 1.355469 C 4.429688 1.355469 4.15625 1.628906 4.15625 1.964844 L 4.15625 14.035156 C 4.15625 14.371094 4.429688 14.644531 4.769531 14.644531 L 9.976562 14.644531 C 7.988281 12.886719 7.957031 9.238281 10.34375 7.597656 Z M 10.34375 7.597656 "/>
    </g>
</svg>
